# xmcd
# Track frame offsets:
# 150
# 18232
# 34505
# 50163
# 67940
# 86496
# 104079
# 118812
# 139660
# 155981
# 172335
# 187344
# 203846
# 220230
# 237256
#
# Disc length: 3369 seconds
# Revision: 0
# Processed by: cddbd v1.5.2PL0 Copyright (c) Steve Scherf et al.
# Submitted via: VisiTrax 2.11.0.264 - For more info visit www.synapsa.com
#
DISCID=e50d270f
DTITLE=Country - ASK70-2
DYEAR=1900
DGENRE=Country
TTITLE0=Chesney, Kenny - You Save Me
TTITLE1=Womack, Lee Ann - Findin' My Way Back Home
TTITLE2=Little Big Town - Good As Gone
TTITLE3=Lonestar - Mountains
TTITLE4=Rascal Flatts - My Wish
TTITLE5=Atkins, Rodney - Watchin' You
TTITLE6=Kershaw, Sammy - Tennessee Girl
TTITLE7=Evans, Sara - You'll always Be My Baby
TTITLE8=Wreckers, The - My, Oh My
TTITLE9=McGraw, Tim - My Little Girl
TTITLE10=Keith, Toby - Crash Here Tonight
TTITLE11=Adkins, Trace - Ladies Love Country Boys
TTITLE12=Lawrence, Tracy - Find Out Who Your Friends Are
TTITLE13=Tonlinson, Trent - one Wing In The Fire
TTITLE14=Willman, Trent - So Am I
EXTD=
EXTT0=
EXTT1=
EXTT2=
EXTT3=
EXTT4=
EXTT5=
EXTT6=
EXTT7=
EXTT8=
EXTT9=
EXTT10=
EXTT11=
EXTT12=
EXTT13=
EXTT14=
PLAYORDER=
